<?xml version="1.0" encoding="UTF-8" standalone="no"?>
<!-- Created with Inkscape (http://www.inkscape.org/) -->

<svg
   xmlns:dc="http://purl.org/dc/elements/1.1/"
   xmlns:cc="http://creativecommons.org/ns#"
   xmlns:rdf="http://www.w3.org/1999/02/22-rdf-syntax-ns#"
   xmlns:svg="http://www.w3.org/2000/svg"
   xmlns="http://www.w3.org/2000/svg"
   xmlns:sodipodi="http://sodipodi.sourceforge.net/DTD/sodipodi-0.dtd"
   xmlns:inkscape="http://www.inkscape.org/namespaces/inkscape"
   width="744.09448819"
   height="1052.3622047"
   id="svg2"
   version="1.1"
   inkscape:version="0.48.1 r9760"
   sodipodi:docname="appCreationWireframe.svg">
  <defs
     id="defs4">
    <inkscape:path-effect
       effect="spiro"
       id="path-effect4650"
       is_visible="true" />
    <inkscape:path-effect
       is_visible="true"
       id="path-effect4631"
       effect="spiro" />
    <marker
       inkscape:stockid="Arrow1Lend"
       orient="auto"
       refY="0.0"
       refX="0.0"
       id="Arrow1Lend"
       style="overflow:visible;">
      <path
         id="path4092"
         d="M 0.0,0.0 L 5.0,-5.0 L -12.5,0.0 L 5.0,5.0 L 0.0,0.0 z "
         style="fill-rule:evenodd;stroke:#000000;stroke-width:1.0pt;marker-start:none;"
         transform="scale(0.8) rotate(180) translate(12.5,0)" />
    </marker>
    <inkscape:path-effect
       effect="spiro"
       id="path-effect4084"
       is_visible="true" />
    <inkscape:path-effect
       effect="spiro"
       id="path-effect3874"
       is_visible="true" />
    <inkscape:path-effect
       effect="spiro"
       id="path-effect3862"
       is_visible="true" />
    <inkscape:path-effect
       effect="spiro"
       id="path-effect3858"
       is_visible="true" />
    <filter
       id="filter4052"
       inkscape:label="Invert"
       x="0"
       y="0"
       width="1"
       height="1"
       inkscape:menu="Color"
       inkscape:menu-tooltip="Invert colors"
       color-interpolation-filters="sRGB">
      <feColorMatrix
         id="feColorMatrix4054"
         type="saturate"
         values="1"
         result="fbSourceGraphic" />
      <feColorMatrix
         id="feColorMatrix4056"
         in="fbSourceGraphic"
         values="-1 0 0 0 1 0 -1 0 0 1 0 0 -1 0 1 0 0 0 1 0 " />
    </filter>
    <filter
       id="filter4571"
       inkscape:label="Invert"
       x="0"
       y="0"
       width="1"
       height="1"
       inkscape:menu="Color"
       inkscape:menu-tooltip="Invert colors"
       color-interpolation-filters="sRGB">
      <feColorMatrix
         id="feColorMatrix4573"
         type="saturate"
         values="1"
         result="fbSourceGraphic" />
      <feColorMatrix
         id="feColorMatrix4575"
         in="fbSourceGraphic"
         values="-1 0 0 0 1 0 -1 0 0 1 0 0 -1 0 1 0 0 0 1 0 " />
    </filter>
  </defs>
  <sodipodi:namedview
     id="base"
     pagecolor="#ffffff"
     bordercolor="#666666"
     borderopacity="1.0"
     inkscape:pageopacity="0.0"
     inkscape:pageshadow="2"
     inkscape:zoom="0.51218108"
     inkscape:cx="512.62252"
     inkscape:cy="530.10673"
     inkscape:document-units="px"
     inkscape:current-layer="layer1"
     showgrid="false"
     inkscape:window-width="1366"
     inkscape:window-height="714"
     inkscape:window-x="0"
     inkscape:window-y="25"
     inkscape:window-maximized="1" />
  <metadata
     id="metadata7">
    <rdf:RDF>
      <cc:Work
         rdf:about="">
        <dc:format>image/svg+xml</dc:format>
        <dc:type
           rdf:resource="http://purl.org/dc/dcmitype/StillImage" />
        <dc:title></dc:title>
      </cc:Work>
    </rdf:RDF>
  </metadata>
  <g
     inkscape:label="Layer 1"
     inkscape:groupmode="layer"
     id="layer1">
    <text
       xml:space="preserve"
       style="font-size:40px;font-style:normal;font-weight:normal;line-height:125%;letter-spacing:0px;word-spacing:0px;fill:#000000;fill-opacity:1;stroke:none;font-family:Sans"
       x="-222.72023"
       y="35.143818"
       id="text2987"
       sodipodi:linespacing="125%"><tspan
         sodipodi:role="line"
         id="tspan2989"
         x="-222.72023"
         y="35.143818">Application</tspan><tspan
         sodipodi:role="line"
         x="-222.72023"
         y="85.143814"
         id="tspan2991">Creation</tspan><tspan
         sodipodi:role="line"
         x="-222.72023"
         y="135.14381"
         id="tspan2993">Wireframes</tspan></text>
    <text
       xml:space="preserve"
       style="font-size:40px;font-style:normal;font-weight:normal;line-height:125%;letter-spacing:0px;word-spacing:0px;fill:#000000;fill-opacity:1;stroke:none;font-family:Sans"
       x="33.191376"
       y="60.525475"
       id="text2995"
       sodipodi:linespacing="125%"><tspan
         sodipodi:role="line"
         id="tspan2997"
         x="33.191376"
         y="60.525475">Create Application</tspan></text>
    <text
       xml:space="preserve"
       style="font-size:36px;font-style:normal;font-weight:normal;line-height:125%;letter-spacing:0px;word-spacing:0px;fill:#000000;fill-opacity:1;stroke:none;font-family:Sans"
       x="37.001125"
       y="88.430336"
       id="text2999"
       sodipodi:linespacing="125%"><tspan
         sodipodi:role="line"
         x="37.001125"
         y="88.430336"
         id="tspan3011" /><tspan
         sodipodi:role="line"
         x="37.001125"
         y="129.49403"
         id="tspan3015"
         style="font-size:32px">Name</tspan></text>
    <flowRoot
       xml:space="preserve"
       id="flowRoot3003"
       style="fill:black;stroke:none;stroke-opacity:1;stroke-width:1px;stroke-linejoin:miter;stroke-linecap:butt;fill-opacity:1;font-family:Sans;font-style:normal;font-weight:normal;font-size:40px;line-height:125%;letter-spacing:0px;word-spacing:0px"><flowRegion
         id="flowRegion3005"><rect
           id="rect3007"
           width="328.009"
           height="99.574158"
           x="-68.335205"
           y="76.144943" /></flowRegion><flowPara
         id="flowPara3009"></flowPara></flowRoot>    <g
       id="g4692">
      <rect
         y="100.00225"
         x="134.71799"
         height="41.001442"
         width="449.06"
         id="rect3017"
         style="fill:#ffffff;stroke:#000000" />
    </g>
    <path
       style="fill:#00ff00;stroke:none"
       id="path3818"
       d="m 602.92576,105.20065 c 4.03498,4.92605 6.97171,10.62661 10.01703,16.19097 2.08694,3.18501 3.47558,6.83774 5.79158,9.87312 0.066,0.0664 0.26355,0.266 0.19803,0.19915 -2.47808,-2.52849 -4.93396,-2.37617 -8.04991,-0.77258 -0.53223,0.2739 -0.64989,1.13232 -1.21864,1.3189 -0.37543,0.12316 0.32621,-0.71977 0.48932,-1.07965 2.42736,-5.18538 5.35849,-10.12061 8.25325,-15.05496 3.99515,-6.25887 8.99488,-11.70175 14.834,-16.25847 3.00136,-2.31974 6.33581,-4.02143 10.00926,-4.94364 4.84713,-0.88205 -0.3081,-0.38829 -2.04908,2.04047 3.9403,-8.824288 16.41972,-3.25185 12.47942,5.57243 l 0,0 c -1.64394,3.25245 -4.25621,5.31569 -7.25145,5.67931 -1.83929,0.3534 -3.36234,1.41021 -4.86152,2.48911 -4.51885,3.38862 -8.2267,7.655 -11.37246,12.33651 -2.65454,4.52469 -5.35599,9.04366 -7.59746,13.79042 -0.63362,1.39287 -1.48541,3.44997 -2.60663,4.29937 -4.35649,3.30035 -9.25168,2.53586 -12.39104,-1.69161 -2.48581,-3.58738 -4.44661,-7.48509 -6.65101,-11.24626 -2.41973,-4.43971 -4.82614,-8.91064 -7.68674,-13.07853 -6.83352,-6.83352 2.83053,-16.49758 9.66405,-9.66406 z"
       inkscape:connector-curvature="0" />
    <text
       xml:space="preserve"
       style="font-size:40px;font-style:normal;font-weight:normal;line-height:125%;letter-spacing:0px;word-spacing:0px;fill:#000000;fill-opacity:1;stroke:none;font-family:Sans"
       x="525.2049"
       y="517.39514"
       id="text3826"
       sodipodi:linespacing="125%"><tspan
         sodipodi:role="line"
         id="tspan3828"
         x="525.2049"
         y="517.39514" /></text>
    <text
       xml:space="preserve"
       style="font-size:24px;font-style:normal;font-weight:normal;line-height:125%;letter-spacing:0px;word-spacing:0px;fill:#000000;fill-opacity:1;stroke:none;font-family:Sans"
       x="169.8618"
       y="220.62511"
       id="text3836"
       sodipodi:linespacing="125%"><tspan
         sodipodi:role="line"
         id="tspan3838"
         x="169.8618"
         y="220.62511" /></text>
    <rect
       style="fill:#ffffff;stroke:#000000;stroke-width:2.75397778;stroke-miterlimit:4;stroke-opacity:1;stroke-dasharray:none"
       id="rect3880"
       width="624.93158"
       height="68.362488"
       x="71.075577"
       y="263.81204" />
    <path
       sodipodi:type="arc"
       style="fill:#000000;stroke:#000000;stroke-width:3;stroke-miterlimit:4;stroke-opacity:1;stroke-dasharray:none"
       id="path3884"
       sodipodi:cx="97.621727"
       sodipodi:cy="326.05655"
       sodipodi:rx="19.524345"
       sodipodi:ry="19.524345"
       d="m 117.14607,326.05655 a 19.524345,19.524345 0 1 1 -39.048688,0 19.524345,19.524345 0 1 1 39.048688,0 z"
       transform="matrix(0.89779422,0,0,0.89779422,18.504189,4.923835)" />
    <text
       xml:space="preserve"
       style="font-size:32.32059479px;font-style:normal;font-weight:normal;line-height:18.99999976%;letter-spacing:0px;word-spacing:0px;fill:#000000;fill-opacity:1;stroke:none;font-family:Sans"
       x="139.78661"
       y="306.95862"
       id="text3886"
       sodipodi:linespacing="19%"><tspan
         sodipodi:role="line"
         id="tspan3888"
         x="139.78661"
         y="306.95862">Ruby On Rails</tspan></text>
    <g
       id="g3898"
       transform="matrix(0.89779422,0,0,0.89779422,-0.65822467,11.93537)">
      <path
         transform="matrix(0.08970794,0,0,0.08970794,353.01821,257.43936)"
         inkscape:transform-center-y="0.86796405"
         inkscape:transform-center-x="1.7264145"
         d="m 1110.669,829.21624 c -47.5084,79.18995 -65.6046,-49.20005 -139.80128,5.78124 -74.19673,54.98129 43.36738,109.66348 -46.22189,132.06571 -89.58927,22.40223 -11.59972,-81.1791 -102.94238,-94.76647 -91.34265,-13.58736 -46.87842,108.20917 -126.06837,60.70076 -79.18995,-47.50841 49.20005,-65.60454 -5.78124,-139.80127 -54.98129,-74.19673 -109.66349,43.36738 -132.06572,-46.22189 -22.40223,-89.58927 81.17911,-11.59972 94.76647,-102.94237 13.58737,-91.34266 -108.20916,-46.87843 -60.70075,-126.06838 47.50841,-79.18995 65.60454,49.20005 139.80127,-5.78124 74.19673,-54.98129 -43.36738,-109.66349 46.22189,-132.06572 89.58927,-22.40223 11.59972,81.17911 102.94237,94.76648 91.34266,13.58736 46.87843,-108.20917 126.06833,-60.70076 79.19,47.50841 -49.2,65.60454 5.7813,139.80127 54.9813,74.19673 109.6635,-43.36738 132.0657,46.22189 22.4022,89.58927 -81.1791,11.59972 -94.7665,102.94237 -13.5873,91.34266 108.2092,46.87843 60.7008,126.06838 z"
         inkscape:randomized="0"
         inkscape:rounded="0.66"
         inkscape:flatsided="false"
         sodipodi:arg2="0.93306697"
         sodipodi:arg1="0.54036789"
         sodipodi:r2="200.89319"
         sodipodi:r1="302.50925"
         sodipodi:cy="673.5899"
         sodipodi:cx="851.26141"
         sodipodi:sides="8"
         id="path3890"
         style="fill:#000000;stroke:#000000;stroke-width:3;stroke-miterlimit:4;stroke-opacity:1;stroke-dasharray:none"
         sodipodi:type="star" />
      <text
         sodipodi:linespacing="19%"
         id="text3894"
         y="330.19955"
         x="420.07892"
         style="font-size:36px;font-style:normal;font-weight:normal;line-height:18.99999976%;letter-spacing:0px;word-spacing:0px;fill:#ffffff;fill-opacity:1;stroke:none;font-family:Sans"
         xml:space="preserve"><tspan
           y="330.19955"
           x="420.07892"
           id="tspan3896"
           sodipodi:role="line">2</tspan></text>
    </g>
    <rect
       rx="11.534996"
       style="fill:#ffffff;stroke:#000000;stroke-width:2.6933825;stroke-miterlimit:4;stroke-opacity:1;stroke-dasharray:none"
       id="rect3903"
       width="107.45759"
       height="36.426304"
       x="450.40549"
       y="281.03204"
       ry="11.534996" />
    <text
       xml:space="preserve"
       style="font-size:21.54706001px;font-style:normal;font-weight:normal;line-height:18.99999976%;letter-spacing:0px;word-spacing:0px;fill:#000000;fill-opacity:1;stroke:none;font-family:Sans"
       x="461.33337"
       y="305.31628"
       id="text3905"
       sodipodi:linespacing="19%"><tspan
         sodipodi:role="line"
         id="tspan3907"
         x="461.33337"
         y="305.31628">About  v</tspan></text>
    <rect
       ry="11.534996"
       y="281.03204"
       x="576.09668"
       height="36.426304"
       width="107.45759"
       id="rect3928"
       style="fill:#ffffff;stroke:#000000;stroke-width:2.6933825;stroke-miterlimit:4;stroke-opacity:1;stroke-dasharray:none"
       rx="11.534996" />
    <text
       sodipodi:linespacing="19%"
       id="text3930"
       y="305.31628"
       x="587.02454"
       style="font-size:21.54706001px;font-style:normal;font-weight:normal;line-height:18.99999976%;letter-spacing:0px;word-spacing:0px;fill:#000000;fill-opacity:1;stroke:none;font-family:Sans"
       xml:space="preserve"><tspan
         y="305.31628"
         x="587.02454"
         id="tspan3932"
         sodipodi:role="line">Select  v</tspan></text>
    <rect
       y="332.0444"
       x="71.075577"
       height="286.31323"
       width="624.93158"
       id="rect3934"
       style="fill:#ffffff;stroke:#000000;stroke-width:2.7539773;stroke-miterlimit:4;stroke-opacity:1;stroke-dasharray:none" />
    <path
       transform="matrix(0.89779422,0,0,0.89779422,18.504189,73.15618)"
       d="m 117.14607,326.05655 a 19.524345,19.524345 0 1 1 -39.048688,0 19.524345,19.524345 0 1 1 39.048688,0 z"
       sodipodi:ry="19.524345"
       sodipodi:rx="19.524345"
       sodipodi:cy="326.05655"
       sodipodi:cx="97.621727"
       id="path3936"
       style="fill:#000000;stroke:#000000;stroke-width:3;stroke-miterlimit:4;stroke-opacity:1;stroke-dasharray:none"
       sodipodi:type="arc" />
    <text
       sodipodi:linespacing="19%"
       id="text3938"
       y="375.19098"
       x="139.78661"
       style="font-size:32.32059479px;font-style:normal;font-weight:normal;line-height:18.99999976%;letter-spacing:0px;word-spacing:0px;fill:#000000;fill-opacity:1;stroke:none;font-family:Sans"
       xml:space="preserve"><tspan
         y="375.19098"
         x="139.78661"
         id="tspan3940"
         sodipodi:role="line">JBossAS </tspan></text>
    <g
       transform="matrix(0.89779422,0,0,0.89779422,-0.65822467,80.16773)"
       id="g3942">
      <path
         sodipodi:type="star"
         style="fill:#000000;stroke:#000000;stroke-width:3;stroke-miterlimit:4;stroke-opacity:1;stroke-dasharray:none"
         id="path3944"
         sodipodi:sides="8"
         sodipodi:cx="851.26141"
         sodipodi:cy="673.5899"
         sodipodi:r1="302.50925"
         sodipodi:r2="200.89319"
         sodipodi:arg1="0.54036789"
         sodipodi:arg2="0.93306697"
         inkscape:flatsided="false"
         inkscape:rounded="0.66"
         inkscape:randomized="0"
         d="m 1110.669,829.21624 c -47.5084,79.18995 -65.6046,-49.20005 -139.80128,5.78124 -74.19673,54.98129 43.36738,109.66348 -46.22189,132.06571 -89.58927,22.40223 -11.59972,-81.1791 -102.94238,-94.76647 -91.34265,-13.58736 -46.87842,108.20917 -126.06837,60.70076 -79.18995,-47.50841 49.20005,-65.60454 -5.78124,-139.80127 -54.98129,-74.19673 -109.66349,43.36738 -132.06572,-46.22189 -22.40223,-89.58927 81.17911,-11.59972 94.76647,-102.94237 13.58737,-91.34266 -108.20916,-46.87843 -60.70075,-126.06838 47.50841,-79.18995 65.60454,49.20005 139.80127,-5.78124 74.19673,-54.98129 -43.36738,-109.66349 46.22189,-132.06572 89.58927,-22.40223 11.59972,81.17911 102.94237,94.76648 91.34266,13.58736 46.87843,-108.20917 126.06833,-60.70076 79.19,47.50841 -49.2,65.60454 5.7813,139.80127 54.9813,74.19673 109.6635,-43.36738 132.0657,46.22189 22.4022,89.58927 -81.1791,11.59972 -94.7665,102.94237 -13.5873,91.34266 108.2092,46.87843 60.7008,126.06838 z"
         inkscape:transform-center-x="1.7264145"
         inkscape:transform-center-y="0.86796405"
         transform="matrix(0.08970794,0,0,0.08970794,353.01821,257.43936)" />
      <text
         xml:space="preserve"
         style="font-size:36px;font-style:normal;font-weight:normal;line-height:18.99999976%;letter-spacing:0px;word-spacing:0px;fill:#ffffff;fill-opacity:1;stroke:none;font-family:Sans"
         x="420.07892"
         y="330.19955"
         id="text3946"
         sodipodi:linespacing="19%"><tspan
           sodipodi:role="line"
           id="tspan3948"
           x="420.07892"
           y="330.19955">4</tspan></text>
    </g>
    <g
       id="g4047"
       style="filter:url(#filter4052)"
       transform="matrix(0.89779422,0,0,0.89779422,50.94571,13.149572)">
      <rect
         rx="12.848152"
         style="fill:#ffffff;stroke:#000000;stroke-width:3;stroke-miterlimit:4;stroke-opacity:1;stroke-dasharray:none"
         id="rect3950"
         width="119.69068"
         height="40.573112"
         x="444.93466"
         y="374.37848"
         ry="12.848152" />
      <text
         xml:space="preserve"
         style="font-size:24px;font-style:normal;font-weight:normal;line-height:18.99999976%;letter-spacing:0px;word-spacing:0px;fill:#000000;fill-opacity:1;stroke:none;font-family:Sans"
         x="457.1066"
         y="401.42725"
         id="text3952"
         sodipodi:linespacing="19%"><tspan
           sodipodi:role="line"
           id="tspan3954"
           x="457.1066"
           y="401.42725">About  v</tspan></text>
    </g>
    <rect
       rx="11.534996"
       style="fill:#ffffff;stroke:#000000;stroke-width:2.6933825;stroke-miterlimit:4;stroke-opacity:1;stroke-dasharray:none"
       id="rect3956"
       width="107.45759"
       height="36.426304"
       x="576.09668"
       y="349.2644"
       ry="11.534996" />
    <text
       xml:space="preserve"
       style="font-size:21.54706001px;font-style:normal;font-weight:normal;line-height:18.99999976%;letter-spacing:0px;word-spacing:0px;fill:#000000;fill-opacity:1;stroke:none;font-family:Sans"
       x="587.02454"
       y="373.54865"
       id="text3958"
       sodipodi:linespacing="19%"><tspan
         sodipodi:role="line"
         id="tspan3960"
         x="587.02454"
         y="373.54865">Select  v</tspan></text>
    <rect
       style="fill:#ffffff;stroke:#000000;stroke-width:2.75397778;stroke-miterlimit:4;stroke-opacity:1;stroke-dasharray:none"
       id="rect3962"
       width="624.93158"
       height="68.362488"
       x="71.075577"
       y="617.54297" />
    <path
       sodipodi:type="arc"
       style="fill:#000000;stroke:#000000;stroke-width:3;stroke-miterlimit:4;stroke-opacity:1;stroke-dasharray:none"
       id="path3964"
       sodipodi:cx="97.621727"
       sodipodi:cy="326.05655"
       sodipodi:rx="19.524345"
       sodipodi:ry="19.524345"
       d="m 117.14607,326.05655 a 19.524345,19.524345 0 1 1 -39.048688,0 19.524345,19.524345 0 1 1 39.048688,0 z"
       transform="matrix(0.89779422,0,0,0.89779422,18.504189,358.65474)" />
    <text
       xml:space="preserve"
       style="font-size:32.32059479px;font-style:normal;font-weight:normal;line-height:18.99999976%;letter-spacing:0px;word-spacing:0px;fill:#000000;fill-opacity:1;stroke:none;font-family:Sans"
       x="139.78661"
       y="660.68958"
       id="text3966"
       sodipodi:linespacing="19%"><tspan
         sodipodi:role="line"
         id="tspan3968"
         x="139.78661"
         y="660.68958">WordPress</tspan></text>
    <g
       id="g3970"
       transform="matrix(0.89779422,0,0,0.89779422,-0.65822467,365.66629)">
      <path
         transform="matrix(0.08970794,0,0,0.08970794,353.01821,257.43936)"
         inkscape:transform-center-y="0.86796405"
         inkscape:transform-center-x="1.7264145"
         d="m 1110.669,829.21624 c -47.5084,79.18995 -65.6046,-49.20005 -139.80128,5.78124 -74.19673,54.98129 43.36738,109.66348 -46.22189,132.06571 -89.58927,22.40223 -11.59972,-81.1791 -102.94238,-94.76647 -91.34265,-13.58736 -46.87842,108.20917 -126.06837,60.70076 -79.18995,-47.50841 49.20005,-65.60454 -5.78124,-139.80127 -54.98129,-74.19673 -109.66349,43.36738 -132.06572,-46.22189 -22.40223,-89.58927 81.17911,-11.59972 94.76647,-102.94237 13.58737,-91.34266 -108.20916,-46.87843 -60.70075,-126.06838 47.50841,-79.18995 65.60454,49.20005 139.80127,-5.78124 74.19673,-54.98129 -43.36738,-109.66349 46.22189,-132.06572 89.58927,-22.40223 11.59972,81.17911 102.94237,94.76648 91.34266,13.58736 46.87843,-108.20917 126.06833,-60.70076 79.19,47.50841 -49.2,65.60454 5.7813,139.80127 54.9813,74.19673 109.6635,-43.36738 132.0657,46.22189 22.4022,89.58927 -81.1791,11.59972 -94.7665,102.94237 -13.5873,91.34266 108.2092,46.87843 60.7008,126.06838 z"
         inkscape:randomized="0"
         inkscape:rounded="0.66"
         inkscape:flatsided="false"
         sodipodi:arg2="0.93306697"
         sodipodi:arg1="0.54036789"
         sodipodi:r2="200.89319"
         sodipodi:r1="302.50925"
         sodipodi:cy="673.5899"
         sodipodi:cx="851.26141"
         sodipodi:sides="8"
         id="path3972"
         style="fill:#000000;stroke:#000000;stroke-width:3;stroke-miterlimit:4;stroke-opacity:1;stroke-dasharray:none"
         sodipodi:type="star" />
      <text
         sodipodi:linespacing="19%"
         id="text3974"
         y="330.19955"
         x="420.07892"
         style="font-size:36px;font-style:normal;font-weight:normal;line-height:18.99999976%;letter-spacing:0px;word-spacing:0px;fill:#ffffff;fill-opacity:1;stroke:none;font-family:Sans"
         xml:space="preserve"><tspan
           y="330.19955"
           x="420.07892"
           id="tspan3976"
           sodipodi:role="line">2</tspan></text>
    </g>
    <rect
       rx="11.534996"
       style="fill:#ffffff;stroke:#000000;stroke-width:2.6933825;stroke-miterlimit:4;stroke-opacity:1;stroke-dasharray:none"
       id="rect3978"
       width="107.45759"
       height="36.426304"
       x="450.40549"
       y="634.763"
       ry="11.534996" />
    <text
       xml:space="preserve"
       style="font-size:21.54706001px;font-style:normal;font-weight:normal;line-height:18.99999976%;letter-spacing:0px;word-spacing:0px;fill:#000000;fill-opacity:1;stroke:none;font-family:Sans"
       x="461.33337"
       y="659.04718"
       id="text3980"
       sodipodi:linespacing="19%"><tspan
         sodipodi:role="line"
         id="tspan3982"
         x="461.33337"
         y="659.04718">About  v</tspan></text>
    <rect
       ry="11.534996"
       y="634.763"
       x="576.09668"
       height="36.426304"
       width="107.45759"
       id="rect3984"
       style="fill:#ffffff;stroke:#000000;stroke-width:2.6933825;stroke-miterlimit:4;stroke-opacity:1;stroke-dasharray:none"
       rx="11.534996" />
    <text
       sodipodi:linespacing="19%"
       id="text3986"
       y="659.04718"
       x="587.02454"
       style="font-size:21.54706001px;font-style:normal;font-weight:normal;line-height:18.99999976%;letter-spacing:0px;word-spacing:0px;fill:#000000;fill-opacity:1;stroke:none;font-family:Sans"
       xml:space="preserve"><tspan
         y="659.04718"
         x="587.02454"
         id="tspan3988"
         sodipodi:role="line">Select  v</tspan></text>
    <rect
       y="685.77533"
       x="71.075577"
       height="229.62785"
       width="624.93158"
       id="rect4009"
       style="fill:#ffffff;stroke:#000000;stroke-width:2.75397778;stroke-miterlimit:4;stroke-opacity:1;stroke-dasharray:none" />
    <path
       transform="matrix(0.89779422,0,0,0.89779422,18.504189,426.8871)"
       d="m 117.14607,326.05655 a 19.524345,19.524345 0 1 1 -39.048688,0 19.524345,19.524345 0 1 1 39.048688,0 z"
       sodipodi:ry="19.524345"
       sodipodi:rx="19.524345"
       sodipodi:cy="326.05655"
       sodipodi:cx="97.621727"
       id="path4011"
       style="fill:#000000;stroke:#000000;stroke-width:3;stroke-miterlimit:4;stroke-opacity:1;stroke-dasharray:none"
       sodipodi:type="arc" />
    <text
       sodipodi:linespacing="19%"
       id="text4013"
       y="728.92194"
       x="139.78661"
       style="font-size:32.32059479px;font-style:normal;font-weight:normal;line-height:18.99999976%;letter-spacing:0px;word-spacing:0px;fill:#000000;fill-opacity:1;stroke:none;font-family:Sans"
       xml:space="preserve"><tspan
         y="728.92194"
         x="139.78661"
         id="tspan4015"
         sodipodi:role="line">Drupal</tspan></text>
    <g
       transform="matrix(0.89779422,0,0,0.89779422,-0.65822467,433.89864)"
       id="g4017">
      <path
         sodipodi:type="star"
         style="fill:#000000;stroke:#000000;stroke-width:3;stroke-miterlimit:4;stroke-opacity:1;stroke-dasharray:none"
         id="path4019"
         sodipodi:sides="8"
         sodipodi:cx="851.26141"
         sodipodi:cy="673.5899"
         sodipodi:r1="302.50925"
         sodipodi:r2="200.89319"
         sodipodi:arg1="0.54036789"
         sodipodi:arg2="0.93306697"
         inkscape:flatsided="false"
         inkscape:rounded="0.66"
         inkscape:randomized="0"
         d="m 1110.669,829.21624 c -47.5084,79.18995 -65.6046,-49.20005 -139.80128,5.78124 -74.19673,54.98129 43.36738,109.66348 -46.22189,132.06571 -89.58927,22.40223 -11.59972,-81.1791 -102.94238,-94.76647 -91.34265,-13.58736 -46.87842,108.20917 -126.06837,60.70076 -79.18995,-47.50841 49.20005,-65.60454 -5.78124,-139.80127 -54.98129,-74.19673 -109.66349,43.36738 -132.06572,-46.22189 -22.40223,-89.58927 81.17911,-11.59972 94.76647,-102.94237 13.58737,-91.34266 -108.20916,-46.87843 -60.70075,-126.06838 47.50841,-79.18995 65.60454,49.20005 139.80127,-5.78124 74.19673,-54.98129 -43.36738,-109.66349 46.22189,-132.06572 89.58927,-22.40223 11.59972,81.17911 102.94237,94.76648 91.34266,13.58736 46.87843,-108.20917 126.06833,-60.70076 79.19,47.50841 -49.2,65.60454 5.7813,139.80127 54.9813,74.19673 109.6635,-43.36738 132.0657,46.22189 22.4022,89.58927 -81.1791,11.59972 -94.7665,102.94237 -13.5873,91.34266 108.2092,46.87843 60.7008,126.06838 z"
         inkscape:transform-center-x="1.7264145"
         inkscape:transform-center-y="0.86796405"
         transform="matrix(0.08970794,0,0,0.08970794,353.01821,257.43936)" />
      <text
         xml:space="preserve"
         style="font-size:36px;font-style:normal;font-weight:normal;line-height:18.99999976%;letter-spacing:0px;word-spacing:0px;fill:#ffffff;fill-opacity:1;stroke:none;font-family:Sans"
         x="420.07892"
         y="330.19955"
         id="text4021"
         sodipodi:linespacing="19%"><tspan
           sodipodi:role="line"
           id="tspan4023"
           x="420.07892"
           y="330.19955">2</tspan></text>
    </g>
    <rect
       ry="11.534996"
       y="702.99536"
       x="450.40549"
       height="36.426304"
       width="107.45759"
       id="rect4025"
       style="fill:#ffffff;stroke:#000000;stroke-width:2.6933825;stroke-miterlimit:4;stroke-opacity:1;stroke-dasharray:none"
       rx="11.534996" />
    <text
       sodipodi:linespacing="19%"
       id="text4027"
       y="727.27954"
       x="461.33337"
       style="font-size:21.54706001px;font-style:normal;font-weight:normal;line-height:18.99999976%;letter-spacing:0px;word-spacing:0px;fill:#000000;fill-opacity:1;stroke:none;font-family:Sans"
       xml:space="preserve"><tspan
         y="727.27954"
         x="461.33337"
         id="tspan4029"
         sodipodi:role="line">About  v</tspan></text>
    <g
       id="g4566"
       style="filter:url(#filter4571)"
       transform="matrix(0.89779422,0,0,0.89779422,50.94571,13.149572)">
      <rect
         ry="12.848152"
         y="768.37848"
         x="584.93469"
         height="40.573112"
         width="119.69068"
         id="rect4031"
         style="fill:#ffffff;stroke:#000000;stroke-width:3;stroke-miterlimit:4;stroke-opacity:1;stroke-dasharray:none"
         rx="12.848152" />
      <text
         sodipodi:linespacing="19%"
         id="text4033"
         y="795.42725"
         x="597.10657"
         style="font-size:24px;font-style:normal;font-weight:normal;line-height:18.99999976%;letter-spacing:0px;word-spacing:0px;fill:#000000;fill-opacity:1;stroke:none;font-family:Sans"
         xml:space="preserve"><tspan
           y="795.42725"
           x="597.10657"
           id="tspan4035"
           sodipodi:role="line">Select  v</tspan></text>
    </g>
    <text
       xml:space="preserve"
       style="font-size:24px;font-style:normal;font-weight:normal;line-height:18.99999976%;letter-spacing:0px;word-spacing:0px;fill:#000000;fill-opacity:1;stroke:none;font-family:Sans"
       x="154.85405"
       y="244.95723"
       id="text4037"
       sodipodi:linespacing="19%"><tspan
         sodipodi:role="line"
         id="tspan4039"
         x="154.85405"
         y="244.95723" /></text>
    <text
       xml:space="preserve"
       style="font-size:21.54706001px;font-style:normal;font-weight:normal;line-height:110.00000238%;letter-spacing:0px;word-spacing:0px;fill:#000000;fill-opacity:1;stroke:none;font-family:Sans"
       x="98.906998"
       y="427.34439"
       id="text4058"
       sodipodi:linespacing="110%"><tspan
         sodipodi:role="line"
         id="tspan4060"
         x="98.906998"
         y="427.34439">JBoss Application Server 7</tspan><tspan
         sodipodi:role="line"
         x="98.906998"
         y="451.04614"
         id="tspan4062">is a fast, lightweight, modular</tspan><tspan
         sodipodi:role="line"
         x="98.906998"
         y="474.74792"
         id="tspan4064">Java application server made</tspan><tspan
         sodipodi:role="line"
         x="98.906998"
         y="498.44968"
         id="tspan4066">of first class components.</tspan><tspan
         sodipodi:role="line"
         x="98.906998"
         y="522.15143"
         id="tspan4068">It offers management tools,</tspan><tspan
         sodipodi:role="line"
         x="98.906998"
         y="545.85321"
         id="tspan4070">parallel deployments, domain</tspan><tspan
         sodipodi:role="line"
         x="98.906998"
         y="569.55499"
         id="tspan4072">management, and more.</tspan></text>
    <text
       xml:space="preserve"
       style="font-size:24px;font-style:normal;font-weight:normal;line-height:18.99999976%;letter-spacing:0px;word-spacing:0px;fill:#000000;fill-opacity:1;stroke:none;font-family:Sans"
       x="794.64081"
       y="243.15057"
       id="text4078"
       sodipodi:linespacing="19%"><tspan
         sodipodi:role="line"
         id="tspan4080"
         x="794.64081"
         y="243.15057">Go to cartridge selection flow</tspan></text>
    <path
       style="fill:none;stroke:#000000;stroke-width:3;stroke-linecap:butt;stroke-linejoin:miter;stroke-miterlimit:4;stroke-opacity:1;stroke-dasharray:none;marker-end:url(#Arrow1Lend)"
       d="m 702.87642,237.29325 82.0022,0"
       id="path4082"
       inkscape:path-effect="#path-effect4084"
       inkscape:original-d="m 702.87642,237.29325 82.0022,0"
       inkscape:connector-curvature="0" />
    <text
       xml:space="preserve"
       style="font-size:21.54706001px;font-style:normal;font-weight:normal;line-height:18.99999976%;letter-spacing:0px;word-spacing:0px;fill:#008080;fill-opacity:1;stroke:none;font-family:Sans"
       x="452.27087"
       y="452.77994"
       id="text4530"
       sodipodi:linespacing="19%"><tspan
         sodipodi:role="line"
         id="tspan4532"
         x="452.27087"
         y="452.77994"
         style="font-size:28.72941589px">jboss.org/as7</tspan></text>
    <text
       xml:space="preserve"
       style="font-size:21.54706001px;font-style:normal;font-weight:normal;line-height:100%;letter-spacing:0px;word-spacing:0px;fill:#000000;fill-opacity:1;stroke:none;font-family:Sans"
       x="454.10913"
       y="497.45813"
       id="text4534"
       sodipodi:linespacing="100%"><tspan
         sodipodi:role="line"
         id="tspan4536"
         x="454.10913"
         y="497.45813">version  7.0.1</tspan><tspan
         sodipodi:role="line"
         x="454.10913"
         y="519.00519"
         id="tspan4548" /><tspan
         sodipodi:role="line"
         x="454.10913"
         y="540.55225"
         id="tspan4542">license   GPL 2.1</tspan><tspan
         sodipodi:role="line"
         x="454.10913"
         y="562.0993"
         id="tspan4546" /><tspan
         sodipodi:role="line"
         x="454.10913"
         y="583.64636"
         id="tspan4544" /><tspan
         sodipodi:role="line"
         x="454.10913"
         y="605.19342"
         id="tspan4538" /><tspan
         sodipodi:role="line"
         x="454.10913"
         y="626.74048"
         id="tspan4540" /></text>
    <text
       xml:space="preserve"
       style="font-size:24px;font-style:normal;font-weight:normal;line-height:18.99999976%;letter-spacing:0px;word-spacing:0px;fill:#000000;fill-opacity:1;stroke:none;font-family:Sans"
       x="150.33745"
       y="128.86069"
       id="text4558"
       sodipodi:linespacing="19%"><tspan
         sodipodi:role="line"
         id="tspan4560"
         x="150.33745"
         y="128.86069">AwesomeApp</tspan></text>
    <text
       xml:space="preserve"
       style="font-size:21.54706001px;font-style:normal;font-weight:normal;line-height:18.99999976%;letter-spacing:0px;word-spacing:0px;fill:#000000;fill-opacity:1;stroke:none;font-family:Sans"
       x="101.95019"
       y="769.96863"
       id="text4577"
       sodipodi:linespacing="19%"><tspan
         sodipodi:role="line"
         id="tspan4579"
         x="101.95019"
         y="769.96863">Admin Login</tspan></text>
    <rect
       style="fill:#ffffff;stroke:#000000;stroke-width:2.6933825;stroke-miterlimit:4;stroke-opacity:1;stroke-dasharray:none"
       id="rect4581"
       width="268.19131"
       height="33.305187"
       x="98.444405"
       y="780.48602"
       rx="0"
       ry="0" />
    <text
       sodipodi:linespacing="19%"
       id="text4587"
       y="836.40533"
       x="101.95019"
       style="font-size:21.54706001px;font-style:normal;font-weight:normal;line-height:18.99999976%;letter-spacing:0px;word-spacing:0px;fill:#000000;fill-opacity:1;stroke:none;font-family:Sans"
       xml:space="preserve"><tspan
         y="836.40533"
         x="101.95019"
         id="tspan4589"
         sodipodi:role="line">Admin/Database Password</tspan></text>
    <rect
       ry="0"
       rx="0"
       y="846.92273"
       x="98.444405"
       height="33.305187"
       width="268.19131"
       id="rect4591"
       style="fill:#ffffff;stroke:#000000;stroke-width:2.6933825;stroke-miterlimit:4;stroke-opacity:1;stroke-dasharray:none" />
    <rect
       style="fill:#4d4d4d;stroke:none"
       id="rect4593"
       width="262.314"
       height="65.5784"
       x="405.64706"
       y="813.49597"
       rx="15.775959"
       ry="15.775959" />
    <text
       xml:space="preserve"
       style="font-size:35.91176605px;font-style:normal;font-weight:normal;line-height:18.99999976%;letter-spacing:0px;word-spacing:0px;fill:#ffffff;fill-opacity:1;stroke:none;font-family:Sans"
       x="480.40237"
       y="854.53406"
       id="text4595"
       sodipodi:linespacing="19%"><tspan
         sodipodi:role="line"
         id="tspan4597"
         x="480.40237"
         y="854.53406">Deploy</tspan></text>
    <g
       id="g4656"
       transform="translate(7.809738,-61.526288)">
      <path
         transform="translate(-408.3442,3.6028255)"
         d="m 534.96705,292.86517 c 0,6.4698 -5.24481,11.71461 -11.71461,11.71461 -6.4698,0 -11.71461,-5.24481 -11.71461,-11.71461 0,-6.4698 5.24481,-11.7146 11.71461,-11.7146 6.4698,0 11.71461,5.2448 11.71461,11.7146 z"
         sodipodi:ry="11.714607"
         sodipodi:rx="11.714607"
         sodipodi:cy="292.86517"
         sodipodi:cx="523.25244"
         id="path4603"
         style="fill:#000000;stroke:none"
         sodipodi:type="arc" />
      <path
         sodipodi:type="arc"
         style="fill:#000000;stroke:none"
         id="path4605"
         sodipodi:cx="523.25244"
         sodipodi:cy="292.86517"
         sodipodi:rx="11.714607"
         sodipodi:ry="11.714607"
         d="m 534.96705,292.86517 c 0,6.4698 -5.24481,11.71461 -11.71461,11.71461 -6.4698,0 -11.71461,-5.24481 -11.71461,-11.71461 0,-6.4698 5.24481,-11.7146 11.71461,-11.7146 6.4698,0 11.71461,5.2448 11.71461,11.7146 z"
         transform="translate(-368.3442,3.6028255)" />
      <path
         transform="translate(-328.3442,3.6028255)"
         d="m 534.96705,292.86517 c 0,6.4698 -5.24481,11.71461 -11.71461,11.71461 -6.4698,0 -11.71461,-5.24481 -11.71461,-11.71461 0,-6.4698 5.24481,-11.7146 11.71461,-11.7146 6.4698,0 11.71461,5.2448 11.71461,11.7146 z"
         sodipodi:ry="11.714607"
         sodipodi:rx="11.714607"
         sodipodi:cy="292.86517"
         sodipodi:cx="523.25244"
         id="path4607"
         style="fill:#000000;stroke:none"
         sodipodi:type="arc" />
      <path
         sodipodi:type="arc"
         style="fill:#000000;stroke:none"
         id="path4609"
         sodipodi:cx="523.25244"
         sodipodi:cy="292.86517"
         sodipodi:rx="11.714607"
         sodipodi:ry="11.714607"
         d="m 534.96705,292.86517 c 0,6.4698 -5.24481,11.71461 -11.71461,11.71461 -6.4698,0 -11.71461,-5.24481 -11.71461,-11.71461 0,-6.4698 5.24481,-11.7146 11.71461,-11.7146 6.4698,0 11.71461,5.2448 11.71461,11.7146 z"
         transform="translate(-288.3442,3.6028255)" />
      <path
         transform="matrix(0.75119662,0,0,0.75119662,-222.45724,76.468671)"
         inkscape:transform-center-x="-3.6666602"
         d="m 675.54235,292.86517 -29.28652,16.90858 0,-33.81716 z"
         inkscape:randomized="0"
         inkscape:rounded="0"
         inkscape:flatsided="true"
         sodipodi:arg2="1.0471976"
         sodipodi:arg1="0"
         sodipodi:r2="9.7621727"
         sodipodi:r1="19.524345"
         sodipodi:cy="292.86517"
         sodipodi:cx="656.01801"
         sodipodi:sides="3"
         id="path4611"
         style="fill:#000000;stroke:none"
         sodipodi:type="star" />
      <path
         sodipodi:type="star"
         style="fill:#000000;stroke:none"
         id="path4613"
         sodipodi:sides="3"
         sodipodi:cx="656.01801"
         sodipodi:cy="292.86517"
         sodipodi:r1="19.524345"
         sodipodi:r2="9.7621727"
         sodipodi:arg1="0"
         sodipodi:arg2="1.0471976"
         inkscape:flatsided="true"
         inkscape:rounded="0"
         inkscape:randomized="0"
         d="m 675.54235,292.86517 -29.28652,16.90858 0,-33.81716 z"
         inkscape:transform-center-x="3.6666779"
         transform="matrix(-0.75119662,0,0,0.75119662,570.47307,76.468671)" />
    </g>
    <path
       inkscape:connector-curvature="0"
       inkscape:original-d="m 62.668167,277.62398 -82.00225,0"
       inkscape:path-effect="#path-effect4631"
       id="path4629"
       d="m 62.668167,277.62398 -82.00225,0"
       style="fill:none;stroke:#000000;stroke-width:3;stroke-linecap:butt;stroke-linejoin:miter;stroke-miterlimit:4;stroke-opacity:1;stroke-dasharray:none;marker-end:url(#Arrow1Lend)" />
    <text
       xml:space="preserve"
       style="font-size:24px;font-style:normal;font-weight:normal;line-height:18.99999976%;letter-spacing:0px;word-spacing:0px;fill:#000000;fill-opacity:1;stroke:none;font-family:Sans"
       x="-329.2955"
       y="283.67374"
       id="text4633"
       sodipodi:linespacing="19%"><tspan
         sodipodi:role="line"
         id="tspan4635"
         x="-329.2955"
         y="283.67374">PHP   Ruby   Java   Python</tspan></text>
    <path
       style="fill:none;stroke:#000000;stroke-width:3;stroke-linecap:butt;stroke-linejoin:miter;stroke-miterlimit:4;stroke-opacity:1;stroke-dasharray:none;marker-end:url(#Arrow1Lend)"
       d="m 62.810864,233.71686 -82.00225,0"
       id="path4648"
       inkscape:path-effect="#path-effect4650"
       inkscape:original-d="m 62.810864,233.71686 -82.00225,0"
       inkscape:connector-curvature="0" />
    <text
       sodipodi:linespacing="19%"
       id="text4652"
       y="243.62393"
       x="-329.1528"
       style="font-size:24px;font-style:normal;font-weight:normal;line-height:18.99999976%;letter-spacing:0px;word-spacing:0px;fill:#000000;fill-opacity:1;stroke:none;font-family:Sans"
       xml:space="preserve"><tspan
         y="243.62393"
         x="-329.1528"
         id="tspan4654"
         sodipodi:role="line">Applications   Frameworks</tspan></text>
    <text
       xml:space="preserve"
       style="font-size:18.04251862px;font-style:normal;font-weight:normal;line-height:125%;letter-spacing:0px;word-spacing:0px;fill:#000000;fill-opacity:1;stroke:none;font-family:Sans"
       x="63.333618"
       y="189.95541"
       id="text3830"
       sodipodi:linespacing="125%"><tspan
         sodipodi:role="line"
         id="tspan3832"
         x="63.333618"
         y="189.95541">show by</tspan></text>
    <rect
       style="fill:#ffffff;stroke:#000000;stroke-width:0.76800275"
       id="rect3834"
       width="217.23216"
       height="96.50647"
       x="141.59106"
       y="172.69936" />
    <text
       xml:space="preserve"
       style="font-size:18.04251862px;font-style:normal;font-weight:normal;line-height:153.99999619%;letter-spacing:0px;word-spacing:0px;fill:#000000;fill-opacity:1;stroke:none;font-family:Sans"
       x="151.90132"
       y="193.49089"
       id="text3840"
       sodipodi:linespacing="154%"><tspan
         sodipodi:role="line"
         x="151.90132"
         y="193.49089"
         id="tspan3844"
         style="line-height:153.99999619%">Most popular</tspan><tspan
         sodipodi:role="line"
         x="151.90132"
         y="221.27637"
         id="tspan3848"
         style="line-height:153.99999619%">Type</tspan><tspan
         sodipodi:role="line"
         x="151.90132"
         y="249.06184"
         id="tspan3850"
         style="line-height:153.99999619%">Language</tspan></text>
    <g
       id="g4725"
       transform="matrix(0.87240657,0,0,0.87240657,100.46084,-14.613272)">
      <rect
         y="214.76779"
         x="400.20151"
         height="44.905994"
         width="279.19812"
         id="rect4711"
         style="fill:#ffffff;stroke:#000000" />
      <g
         transform="matrix(0.58250956,0,0,0.58250956,148.59493,6.0509486)"
         id="g4717">
        <path
           sodipodi:type="arc"
           style="fill:#ffffff;stroke:#000000;stroke-width:6;stroke-miterlimit:4;stroke-opacity:1;stroke-dasharray:none"
           id="path4713"
           sodipodi:cx="861.99982"
           sodipodi:cy="389.51068"
           sodipodi:rx="16.595694"
           sodipodi:ry="16.595694"
           d="m 878.59551,389.51068 c 0,9.16555 -7.43014,16.59569 -16.59569,16.59569 -9.16555,0 -16.5957,-7.43014 -16.5957,-16.59569 0,-9.16555 7.43015,-16.59569 16.5957,-16.59569 9.16555,0 16.59569,7.43014 16.59569,16.59569 z" />
        <rect
           style="fill:#ffffff;stroke:#000000;stroke-width:6.71973848;stroke-miterlimit:4;stroke-opacity:1;stroke-dasharray:none"
           id="rect4715"
           width="20.195503"
           height="0.32573393"
           x="905.6106"
           y="-333.53244"
           transform="matrix(0.70710678,0.70710678,-0.70710678,0.70710678,0,0)" />
      </g>
    </g>
    <text
       xml:space="preserve"
       style="font-size:24px;font-style:normal;font-weight:normal;line-height:18.99999976%;letter-spacing:0px;word-spacing:0px;fill:#008080;fill-opacity:1;stroke:none;font-family:Sans"
       x="367.05768"
       y="241.29327"
       id="text4721"
       sodipodi:linespacing="19%"><tspan
         sodipodi:role="line"
         id="tspan4723"
         x="367.05768"
         y="241.29327">Create a custom app instead &gt;</tspan></text>
  </g>
</svg>
